<?xml version="1.0" standalone="no"?><!DOCTYPE svg PUBLIC "-//W3C//DTD SVG 1.1//EN" "http://www.w3.org/Graphics/SVG/1.1/DTD/svg11.dtd"><svg t="1548743862009" class="icon" style="" viewBox="0 0 1024 1024" version="1.1" xmlns="http://www.w3.org/2000/svg" p-id="2541" xmlns:xlink="http://www.w3.org/1999/xlink" width="200" height="200"><defs><style type="text/css"></style></defs><path d="M960 568H64c-35.2 0-64-28.8-64-64s28.8-64 64-64h896c35.2 0 64 28.8 64 64s-28.8 64-64 64zM960 128H64c-35.2 0-64-28.8-64-64s28.8-64 64-64h896c35.2 0 64 28.8 64 64s-28.8 64-64 64zM64 880h896c35.2 0 64 28.8 64 64s-28.8 64-64 64H64c-35.2 0-64-28.8-64-64s28.8-64 64-64z" fill="#283550" p-id="2542"></path></svg>