<?xml version="1.0" standalone="no"?><!DOCTYPE svg PUBLIC "-//W3C//DTD SVG 1.1//EN" "http://www.w3.org/Graphics/SVG/1.1/DTD/svg11.dtd"><svg t="1548743870859" class="icon" style="" viewBox="0 0 1024 1024" version="1.1" xmlns="http://www.w3.org/2000/svg" p-id="2650" xmlns:xlink="http://www.w3.org/1999/xlink" width="200" height="200"><defs><style type="text/css"></style></defs><path d="M451.764706 956.235294v-843.294118c0-33.129412 27.105882-60.235294 60.235294-60.235294s60.235294 27.105882 60.235294 60.235294v843.294118c0 33.129412-27.105882 60.235294-60.235294 60.235294s-60.235294-27.105882-60.235294-60.235294z m414.117647 0v-843.294118c0-33.129412 27.105882-60.235294 60.235294-60.235294s60.235294 27.105882 60.235294 60.235294v843.294118c0 33.129412-27.105882 60.235294-60.235294 60.235294s-60.235294-27.105882-60.235294-60.235294z m-707.764706-843.294118v843.294118c0 33.129412-27.105882 60.235294-60.235294 60.235294s-60.235294-27.105882-60.235294-60.235294v-843.294118c0-33.129412 27.105882-60.235294 60.235294-60.235294s60.235294 27.105882 60.235294 60.235294z" fill="#283550" p-id="2651"></path></svg>