<?xml version="1.0" encoding="UTF-8"?>
<svg width="14px" height="14px" viewBox="0 0 14 14" version="1.1" xmlns="http://www.w3.org/2000/svg" xmlns:xlink="http://www.w3.org/1999/xlink">
    <!-- Generator: Sketch 53.2 (72643) - https://sketchapp.com -->
    <title>Out 2</title>
    <desc>Created with Sketch.</desc>
    <defs>
        <filter x="-27.9%" y="-17.6%" width="155.7%" height="135.1%" filterUnits="objectBoundingBox" id="filter-1">
            <feOffset dx="0" dy="2" in="SourceAlpha" result="shadowOffsetOuter1"></feOffset>
            <feGaussianBlur stdDeviation="9" in="shadowOffsetOuter1" result="shadowBlurOuter1"></feGaussianBlur>
            <feColorMatrix values="0 0 0 0 0.156862745   0 0 0 0 0.207843137   0 0 0 0 0.31372549  0 0 0 0.06 0" type="matrix" in="shadowBlurOuter1" result="shadowMatrixOuter1"></feColorMatrix>
            <feMerge>
                <feMergeNode in="shadowMatrixOuter1"></feMergeNode>
                <feMergeNode in="SourceGraphic"></feMergeNode>
            </feMerge>
        </filter>
    </defs>
    <g id="申请中心" stroke="none" stroke-width="1" fill="none" fill-rule="evenodd">
        <g transform="translate(-1777.000000, -237.000000)" fill="#A1A6B1" id="分组-4">
            <g filter="url(#filter-1)" transform="translate(1760.000000, 53.000000)">
                <g id="Out-2" transform="translate(17.000000, 184.000000)">
                    <path d="M1.03703704,14 C0.465111111,14 -2.55795385e-13,13.5308511 -2.55795385e-13,12.9574468 L-5.68434189e-14,5.58510638 C-5.68434189e-14,5.01170213 0.465111111,4.54255319 1.03703704,4.54255319 L3.88888889,4.54255319 C4.31874074,4.54255319 4.66666667,4.89180851 4.66666667,5.32446809 C4.66666667,5.75712766 4.31874074,6.10638298 3.88888889,6.10638298 L1.55555556,6.10638298 L1.55555556,12.4361702 L12.4444444,12.4361702 L12.4444444,6.10638298 L10.1111111,6.10638298 C9.68177778,6.10638298 9.33333333,5.75712766 9.33333333,5.32446809 C9.33333333,4.89180851 9.68177778,4.54255319 10.1111111,4.54255319 L12.962963,4.54255319 C13.5348889,4.54255319 14,5.01170213 14,5.58510638 L14,12.9574468 C14,13.5308511 13.5348889,14 12.962963,14 L1.03703704,14 Z M9.04296296,3.94085106 L7.77777778,2.66893617 L7.77777778,7.53533168 C7.77777778,7.96799125 7.42985185,8.31724657 7,8.31724657 C6.57066667,8.31724657 6.22222222,7.96799125 6.22222222,7.53533168 L6.22222222,2.66893617 L4.95755556,3.94085106 C4.81651852,4.08159574 4.62207407,4.17021277 4.40740741,4.17021277 C3.97807407,4.17021277 3.62962963,3.82095745 3.62962963,3.38829787 C3.62962963,3.17457447 3.71674074,2.97648936 3.85777778,2.83574468 L6.45037037,0.229361702 C6.59088889,0.0886170213 6.78533333,3.06865644e-12 7,3.06865644e-12 C7.21466667,3.06865644e-12 7.40911111,0.0886170213 7.55014815,0.229361702 L10.1427407,2.83574468 C10.2832593,2.97648936 10.3703704,3.17457447 10.3703704,3.38829787 C10.3703704,3.82095745 10.0224444,4.17021277 9.59259259,4.17021277 C9.37792593,4.17021277 9.18348148,4.08159574 9.04296296,3.94085106 Z" id="Out" transform="translate(7.000000, 7.000000) rotate(-270.000000) translate(-7.000000, -7.000000) "></path>
                </g>
            </g>
        </g>
    </g>
</svg>