<?xml version="1.0" standalone="no"?><!DOCTYPE svg PUBLIC "-//W3C//DTD SVG 1.1//EN" "http://www.w3.org/Graphics/SVG/1.1/DTD/svg11.dtd"><svg t="1546508103146" class="icon" style="" viewBox="0 0 1024 1024" version="1.1" xmlns="http://www.w3.org/2000/svg" p-id="13106" xmlns:xlink="http://www.w3.org/1999/xlink" width="200" height="200"><defs><style type="text/css"></style></defs><path d="M1021.952 609.426286l-153.6-568.832C861.696 16.457143 841.728 0 819.2 0H204.8c-22.528 0-42.496 16.530286-49.152 40.594286l-153.6 568.832A172.909714 172.909714 0 0 0 0 625.810286v341.284571c0 31.451429 22.747429 56.905143 51.2 56.905143h921.6c28.379429 0 51.2-25.453714 51.2-56.905143V625.810286c0-2.925714-1.536-13.604571-2.048-16.384zM921.6 910.189714H102.4v-227.474285h204.8v56.832c0 31.451429 22.747429 56.905143 51.2 56.905142h307.2c28.452571 0 51.2-25.453714 51.2-56.905142v-56.905143h204.8v227.547428zM242.980571 113.810286h538.038858l122.88 455.094857H665.6c-28.452571 0-51.2 25.453714-51.2 56.905143v56.832H409.6v-56.832c0-31.451429-22.747429-56.905143-51.2-56.905143H120.027429l122.88-455.094857zM665.6 398.189714H358.4c-28.452571 0-51.2-25.453714-51.2-56.832 0-31.451429 22.747429-56.905143 51.2-56.905143h307.2c28.452571 0 51.2 25.453714 51.2 56.905143 0 31.451429-22.820571 56.832-51.2 56.832z" p-id="13107"></path></svg>